<svg xmlns="http://www.w3.org/2000/svg" version="1.1" xmlns:xlink="http://www.w3.org/1999/xlink" xmlns:svgjs="http://svgjs.dev/svgjs" width="1500" height="1347" viewBox="0 0 1500 1347"><g transform="matrix(1,0,0,1,-2.6703327199516025,-2.1725806451613607)"><svg viewBox="0 0 276 248" data-background-color="#f2f0e4" preserveAspectRatio="xMidYMid meet" height="1347" width="1500" xmlns="http://www.w3.org/2000/svg" xmlns:xlink="http://www.w3.org/1999/xlink"><g id="tight-bounds" transform="matrix(1,0,0,1,0.4913412204710994,0.4000000000000057)"><svg viewBox="0 0 275.0173175590578 247.2" height="247.2" width="275.0173175590578"><g><svg viewBox="0 0 395.52 355.5141358652955" height="247.2" width="275.0173175590578"><g transform="matrix(1,0,0,1,0,219.6030221372955)"><svg viewBox="0 0 395.52 135.91111372799998" height="135.91111372799998" width="395.52"><g id="textblocktransform"><svg viewBox="0 0 395.52 135.91111372799998" height="135.91111372799998" width="395.52" id="textblock"><g><svg viewBox="0 0 395.52 67.08095536791313" height="67.08095536791313" width="395.52"><g transform="matrix(1,0,0,1,0,0)"><svg width="395.52" viewBox="2.25 -35.1 207.24 35.150000000000006" height="67.08095536791313" data-palette-color="#3d2f28"><path d="M11.9-0.95L11.9-0.95Q15.6-0.95 18.4-3.13 21.2-5.3 21.2-9.75L21.2-9.75Q21.2-11.75 20.23-13.18 19.25-14.6 17.65-15.38 16.05-16.15 14.15-16.73 12.25-17.3 10.35-17.95 8.45-18.6 6.85-19.5 5.25-20.4 4.28-22.05 3.3-23.7 3.3-26L3.3-26Q3.3-30 6.05-32.55 8.8-35.1 13.4-35.1 18-35.1 22.2-34.05L22.2-34.05 22.75-27.8 21.8-27.4 21.3-31.35Q17.6-34.1 14.35-34.1 11.1-34.1 8.9-32.13 6.7-30.15 6.7-26.2L6.7-26.2Q6.7-23.9 8.55-22.55 10.4-21.2 13.03-20.45 15.65-19.7 18.28-18.75 20.9-17.8 22.75-15.55 24.6-13.3 24.6-9.7L24.6-9.7Q24.6-4.85 21.15-2.4 17.7 0.05 12.05 0.05 6.4 0.05 2.25-3L2.25-3 2.3-8.3 3.25-8.55 3.35-5.7Q4.7-3.8 7.05-2.38 9.4-0.95 11.9-0.95ZM30.4-33.95L27.75-34.25 27.8-35 34.4-35 46.35-9.65 58.1-35 64.7-35Q64.7-34.9 64.75-34.65 64.8-34.4 64.75-34.25L64.75-34.25 62.1-33.95Q61.6-33.9 61.5-33.3L61.5-33.3 61.5-0.95 65.2-0.75Q65.2-0.7 65.15 0L65.15 0 55.1 0.05 55.15-0.65 57.75-1Q58.25-1.05 58.35-1.6L58.35-1.6 58.35-33.2 46.95-8.55 45.95-6.55 44.8-6.55 32.15-33.25 32.15-1.05 37.85-0.75Q37.85-0.7 37.8 0L37.8 0 27.75 0.05 27.8-0.65 30.4-1Q30.9-1.05 31-1.65L31-1.65 31-33.3Q30.9-33.9 30.4-33.95L30.4-33.95ZM66.6-34.95L76.65-35Q76.65-34.95 76.7-34.25L76.7-34.25 72.8-33.9 81.1-1.3 90.4-35 91.15-35 91-34.6 91.2-35 100-1.2 108.8-33.25Q108.8-33.75 108.35-33.8L108.35-33.8 103.65-34.2 103.6-34.95 113.4-35Q113.4-34.95 113.45-34.25L113.45-34.25 110.2-33.95 100.3 0 97.25 0 89.7-29.85 81.45 0 78.35 0 69.75-33.55Q69.6-33.9 69.25-33.95L69.25-33.95 66.65-34.2 66.6-34.95ZM118.54-33.95L115.89-34.25 115.94-35 128.09-35Q133.24-35 136.04-32.75 138.84-30.5 138.84-26.05L138.84-26.05Q138.84-23.15 136.62-20 134.39-16.85 132.44-15.95L132.44-15.95 141.69-0.9 144.14-0.75Q144.14-0.7 144.09 0L144.09 0 138.64 0.05 129.14-15.35 122.49-15.35 122.49-0.95 125.99-0.75Q125.99-0.7 125.94 0L125.94 0 115.89 0.05 115.94-0.65 118.54-1Q118.89-1.05 119.09-1.45L119.09-1.45 119.09-33.45Q118.94-33.9 118.54-33.95L118.54-33.95ZM127.84-34.25L127.84-34.25 122.49-34.25 122.49-16.1 131.04-16.1Q133.64-19.05 134.54-21.33 135.44-23.6 135.44-25.75L135.44-25.75Q135.44-29.95 133.49-32.1 131.54-34.25 127.84-34.25ZM157.19 0L147.14 0.05 147.19-0.65 149.79-1Q150.29-1.05 150.39-1.65L150.39-1.65 150.44-1.65 150.44-33.25 150.39-33.25Q150.29-33.9 149.79-33.95L149.79-33.95 147.19-34.2 147.14-34.95 157.19-35Q157.19-34.95 157.24-34.25L157.24-34.25 153.84-33.95 153.84-0.95 157.24-0.75Q157.24-0.7 157.19 0L157.19 0ZM169.49-1.65L169.49-34 160.89-34 160.09-27.4 159.14-27.8 159.64-34 159.59-34 159.69-34.4 159.74-35 159.84-34.95 159.84-35 182.54-35 183.19-27.8 182.19-27.4 181.39-34 172.64-34 172.64-0.95 176.29-0.75Q176.29-0.7 176.24 0L176.24 0 166.24 0.05Q166.24-0.4 166.29-0.65L166.29-0.65 168.89-1Q169.39-1.05 169.49-1.65L169.49-1.65ZM188.64-33.95L185.99-34.25 186.04-35 207.44-35 207.39-34.85 208.04-27.8 207.04-27.4 206.24-34 192.64-34 192.64-17.85 204.59-17.85Q204.84-17.8 205.04-17.98 205.24-18.15 205.24-18.45L205.24-18.45 205.44-21.9 206.24-22 206.24-13.45Q206.19-13.45 205.49-13.4L205.49-13.4 205.29-16.85 192.64-16.85 192.64-1 207.59-1 208.54-9 209.49-8.75 208.74 0 196.04 0 185.99 0.05 186.04-0.65 188.64-1Q189.14-1.05 189.24-1.65L189.24-1.65 189.24-33.3Q189.14-33.9 188.64-33.95L188.64-33.95Z" opacity="1" transform="matrix(1,0,0,1,0,0)" fill="#3d2f28" class="wordmark-text-0" data-fill-palette-color="primary" id="text-0"></path></svg></g></svg></g><g transform="matrix(1,0,0,1,111.65270017467287,82.9171589873486)"><svg viewBox="0 0 172.21459965065424 52.993954740651375" height="52.993954740651375" width="172.21459965065424"><g transform="matrix(1,0,0,1,0,0)"><svg width="172.21459965065424" viewBox="1.45 -51.25 273.27000000000004 84.10000000000001" height="52.993954740651375" data-palette-color="#3d2f28"><path d="M10.45 0.6Q7.55 0.6 4.75-0.25 1.95-1.1 1.45-2.1L1.45-2.1Q1.7-3.3 1.9-5.38 2.1-7.45 2.1-8.55L2.1-8.55Q2.5-8.9 3.25-8.9L3.25-8.9Q3.25-6.05 3.88-4.45 4.5-2.85 5.95-2.13 7.4-1.4 10.05-1.4L10.05-1.4Q14.75-1.4 17.88-3.38 21-5.35 21-9L21-9Q21-10.9 19.9-12.78 18.8-14.65 16-17.25L16-17.25 14.65-18.5Q12.05-20.85 10.83-22.58 9.6-24.3 9.6-26.75L9.6-26.75Q9.6-29.15 10.83-31.13 12.05-33.1 14.33-34.23 16.6-35.35 19.55-35.35L19.55-35.35Q22.45-35.35 24.5-34.35 26.55-33.35 27.15-32L27.15-32Q27.15-30.5 26.7-28.55 26.25-26.6 26.15-26.25L26.15-26.25Q25.5-26.25 24.9-26.45L24.9-26.45 25.05-27.45Q25.15-28.35 25.15-28.9L25.15-28.9Q25.15-31.2 23.93-32.23 22.7-33.25 20.1-33.25L20.1-33.25Q16.45-33.25 14.28-31.6 12.1-29.95 12.1-27.3L12.1-27.3Q12.1-25.25 13.4-23.58 14.7-21.9 17.4-19.5L17.4-19.5 18.45-18.55Q21.65-15.65 22.83-13.85 24-12.05 24-9.7L24-9.7Q24-6.3 21.93-3.98 19.85-1.65 16.73-0.53 13.6 0.6 10.45 0.6L10.45 0.6ZM35.9 0.35Q34.15 0.35 32.77-0.83 31.4-2 31.4-4.3L31.4-4.3Q32.15-6.7 34-14.95L34-14.95Q34.9-19 35.1-19.8L35.1-19.8Q35.75-20.9 36.9-20.9L36.9-20.9Q37.65-20.9 37.65-20.4L37.65-20.4Q37.3-19.15 36.67-16.43 36.05-13.7 35.7-12.15L35.7-12.15Q34.35-5.95 33.85-4.2L33.85-4.2Q33.85-3.05 34.52-2.43 35.2-1.8 36.3-1.8L36.3-1.8Q38.8-1.8 41.32-3.58 43.85-5.35 45.77-7.7 47.7-10.05 48.65-11.75L48.65-11.75Q48.95-11.65 49.05-11.43 49.15-11.2 49.15-10.65L49.15-10.65Q49.15-9.9 48.65-9.1L48.65-9.1Q45.95-4.85 42.6-2.25 39.25 0.35 35.9 0.35L35.9 0.35ZM38.2-27.15Q37.5-27.15 37.1-27.63 36.7-28.1 36.7-28.85L36.7-28.85Q36.7-29.85 37.35-30.68 38-31.5 39-31.5L39-31.5Q39.8-31.5 40.17-31 40.55-30.5 40.55-29.8L40.55-29.8Q40.55-28.8 39.87-27.98 39.2-27.15 38.2-27.15L38.2-27.15ZM81.2-11.55Q81.25-10 79.32-7.15 77.4-4.3 74.59-2.1 71.8 0.1 69.09 0.1L69.09 0.1Q67.2 0.1 65.97-1.13 64.75-2.35 64.75-4.85L64.75-4.85Q64.75-6.9 65.42-9.47 66.09-12.05 67.25-15.6L67.25-15.6Q67.59-16.55 67.9-17.6L67.9-17.6Q67.9-17.75 67.7-17.88 67.5-18 67.3-18L67.3-18Q66.65-18 64.72-16.13 62.8-14.25 60.82-11.83 58.85-9.4 58.2-8.15L58.2-8.15Q57.7-6.6 56.55-1.65L56.55-1.65Q56.35-0.8 56.22-0.5 56.1-0.2 55.8-0.2L55.8-0.2Q55.35-0.2 54.77-0.75 54.2-1.3 54.2-1.85L54.2-1.85Q54.2-2.4 54.7-4.25L54.7-4.25Q56.8-11.95 58.1-17.6L58.1-17.6Q57.8-18 57.35-18L57.35-18Q56.6-18 54.8-16.15 53-14.3 51.05-11.48 49.1-8.65 47.85-5.9L47.85-5.9Q47.1-3.45 46.5-0.25L46.5-0.25Q46-0.25 45.2-0.6 44.4-0.95 44.4-1.3L44.4-1.3Q44.4-1.7 44.9-3.55L44.9-3.55 49.15-20.1Q49.25-20.55 49.4-20.75 49.55-20.95 49.85-20.95L49.85-20.95Q50.15-20.95 50.87-20.65 51.6-20.35 51.8-20.15L51.8-20.15 51.35-18.55Q51.2-17.95 50.67-16.07 50.15-14.2 49.7-12.2L49.7-12.2Q51.25-14.9 52.92-16.68 54.6-18.45 56-19.28 57.4-20.1 58.15-20.1L58.15-20.1Q58.7-20.1 59.55-19.5 60.4-18.9 60.4-18.5L60.4-18.5Q59.95-15.75 59.1-12.3L59.1-12.3Q61.15-15.1 64-17.88 66.84-20.65 68.34-20.65L68.34-20.65Q69.05-20.65 69.84-20.1 70.65-19.55 70.7-18.8L70.7-18.8Q69.09-13.85 68.22-10.65 67.34-7.45 67.34-4.9L67.34-4.9Q67.34-3.4 67.84-2.73 68.34-2.05 69.65-2.05L69.65-2.05Q72.7-2.05 75.55-5.38 78.4-8.7 79.9-13.2L79.9-13.2Q80.45-13.2 80.82-12.7 81.2-12.2 81.2-11.55L81.2-11.55ZM102.64-10.25Q103.39-9.8 103.39-8.75L103.39-8.75Q103.39-8.15 103.17-7.7 102.94-7.25 102.54-6.75L102.54-6.75Q100.09-3.8 96.14-2.23 92.19-0.65 88.77-0.18 85.34 0.3 83.19 0.3L83.19 0.3Q81.89 0.3 81.39 0.05 80.89-0.2 80.89-0.95L80.89-0.95Q80.89-1.35 81.04-1.8L81.04-1.8Q82.44-1.55 82.99-1.55L82.99-1.55Q85.49-1.55 87.14-3.43 88.79-5.3 89.72-7.93 90.64-10.55 91.59-14.4L91.59-14.4Q91.74-14.85 91.94-15.75L91.94-15.75Q91.94-16.4 90.92-17.35 89.89-18.3 89.19-18.3L89.19-18.3Q88.54-18.3 87.14-17.48 85.74-16.65 84.42-15.08 83.09-13.5 82.49-11.45L82.49-11.45Q81.04-6.35 80.02-1.95 78.99 2.45 77.74 8.35L77.74 8.35Q75.14 20.55 73.14 28.35L73.14 28.35Q72.79 29.7 72.24 30.38 71.69 31.05 70.94 31.33 70.19 31.6 68.49 31.95L68.49 31.95Q66.34 32.35 64.59 32.85L64.59 32.85 64.04 32.6Q66.84 31.35 68.14 30.2 69.44 29.05 70.09 27.38 70.74 25.7 71.74 21.7L71.74 21.7Q78.14-3.45 83.14-24.55L83.14-24.55Q83.24-25 83.44-25.18 83.64-25.35 83.94-25.45L83.94-25.45Q84.44-25.65 85.14-25.98 85.84-26.3 86.09-26.35L86.09-26.35Q86.24-26.3 86.54-25.9L86.54-25.9Q86.44-25.55 86.29-25.35L86.29-25.35Q85.89-24.45 84.29-18.9L84.29-18.9Q83.84-17.4 83.74-17.05L83.74-17.05Q85.09-18.6 86.97-19.8 88.84-21 89.94-21L89.94-21Q90.84-21 92.04-20.18 93.24-19.35 94.09-18.2 94.94-17.05 94.94-16.1L94.94-16.1 94.34-13.8Q93.59-10.75 92.92-8.7 92.24-6.65 90.94-4.75 89.64-2.85 87.64-1.7L87.64-1.7Q90.59-2.1 92.89-2.9 95.19-3.7 97.59-5.43 99.99-7.15 102.64-10.25L102.64-10.25ZM121.94-14Q122.44-14 122.74-13.53 123.04-13.05 123.04-12.35L123.04-12.35Q123.04-11.45 122.54-10.45L122.54-10.45Q121.14-7.5 118.54-5.03 115.94-2.55 112.92-1.1 109.89 0.35 107.29 0.35L107.29 0.35Q101.99 0.35 101.99-5.8L101.99-5.8Q101.99-10.1 104.34-19.63 106.69-29.15 111.14-44.9L111.14-44.9Q112.09-48.15 113.22-49.7 114.34-51.25 115.79-51.25L115.79-51.25Q116.84-51.25 117.82-50.53 118.79-49.8 119.44-48.3 120.09-46.8 120.09-44.6L120.09-44.6Q120.09-41.05 118.42-35.6 116.74-30.15 113.39-24.1 110.04-18.05 105.34-12.9L105.34-12.9Q104.49-8.5 104.49-6.35L104.49-6.35Q104.49-3.95 105.47-2.93 106.44-1.9 108.19-1.9L108.19-1.9Q110.64-1.9 113.42-3.55 116.19-5.2 118.49-8 120.79-10.8 121.94-14L121.94-14ZM112.44-41.75Q108.24-26.65 106.09-16.7L106.09-16.7Q109.79-21.35 112.47-26.85 115.14-32.35 116.47-37.15 117.79-41.95 117.79-44.7L117.79-44.7Q117.79-46.25 117.34-47.38 116.89-48.5 115.84-48.5L115.84-48.5Q115.24-48.5 114.42-47.25 113.59-46 112.44-41.75L112.44-41.75ZM135.24-20.9Q135.89-20.9 136.71-20.38 137.54-19.85 137.74-19.2L137.74-19.2Q137.14-17.2 136.59-15L136.59-15Q136.34-14.15 135.54-11.28 134.74-8.4 133.44-4.25L133.44-4.25Q130.54 4.9 127.71 11.03 124.89 17.15 119.99 21.4 115.09 25.65 107.79 25.65L107.79 25.65Q104.14 25.65 101.69 24.55 99.24 23.45 98.06 21.7 96.89 19.95 96.89 17.85L96.89 17.85Q96.89 17.15 97.04 16.78 97.19 16.4 97.29 16.1L97.29 16.1Q98.84 19.25 101.41 20.88 103.99 22.5 108.24 22.5L108.24 22.5Q113.94 22.5 118.09 19.58 122.24 16.65 125.24 11.03 128.24 5.4 130.64-3.3L130.64-3.3Q129.14-1.95 127.21-0.98 125.29 0 124.04 0L124.04 0Q123.09 0 122.21-0.6 121.34-1.2 120.76-2.13 120.19-3.05 120.19-3.85L120.19-3.85Q121.54-10 122.74-15.1L122.74-15.1Q123.34-17.8 123.69-19.3L123.69-19.3Q123.89-20.1 124.24-20.4 124.59-20.7 125.34-20.7L125.34-20.7Q125.99-20.7 126.64-20.45L126.64-20.45 122.84-4.45Q122.84-3.7 123.46-3.05 124.09-2.4 124.84-2.4L124.84-2.4Q125.94-2.4 128.24-3.85 130.54-5.3 131.34-6.35L131.34-6.35Q132.44-9.05 133.14-11.75 133.84-14.45 134.74-18.6L134.74-18.6 135.24-20.9ZM205.98-38.5Q206.83-38.5 207.43-38.08 208.03-37.65 208.58-36.9L208.58-36.9Q207.58-36.8 207.28-36.7L207.28-36.7Q204.33-35.65 200.71-29.93 197.08-24.2 193.73-16.3 190.38-8.4 188.03-0.75L188.03-0.75Q188.03-0.7 187.93-0.43 187.83-0.15 187.66 0.03 187.48 0.2 187.13 0.3L187.13 0.3Q186.63 0.4 186.21 0.53 185.78 0.65 185.41 0.83 185.03 1 184.73 1.15L184.73 1.15Q184.63 1.2 184.58 1.2L184.58 1.2Q184.28 1.2 184.18 1 184.08 0.8 183.98 0.2L183.98 0.2Q183.18-6.85 182.36-11.7 181.53-16.55 180.33-22.25L180.33-22.25 179.43-26.8Q176.38-22.8 172.56-15.2 168.73-7.6 165.58-0.45L165.58-0.45Q165.43-0.05 165.31 0.08 165.18 0.2 164.93 0.25L164.93 0.25Q163.68 0.45 163.28 0.6 162.88 0.75 162.66 1 162.43 1.25 162.08 1.45L162.08 1.45Q161.53 1.45 161.68 0.75L161.68 0.75Q162.03-0.95 162.31-5.9 162.58-10.85 162.58-16.15L162.58-16.15Q162.58-20.9 162.36-24.98 162.13-29.05 161.78-30.45L161.78-30.45Q161.63-31.05 161.31-31.33 160.98-31.6 160.28-31.6L160.28-31.6Q159.48-31.6 157.68-31.15L157.68-31.15Q156.58-30.95 156.48-30.95L156.48-30.95Q156.03-30.95 155.81-31.45 155.58-31.95 155.58-32.55L155.58-32.55Q155.58-33.25 155.93-33.25L155.93-33.25Q159.78-33.85 164.03-35.25L164.03-35.25Q165.23-35.65 165.53-35.65L165.53-35.65Q165.88-35.65 165.88-35.3L165.88-35.3Q165.88-35 165.78-34.8L165.78-34.8Q165.28-33.55 165.06-32.58 164.83-31.6 164.73-29.4L164.73-29.4Q164.63-26.9 164.63-21.15L164.63-21.15Q164.63-11.25 164.73-5.25L164.73-5.25Q165.43-6.55 168.58-12.45L168.58-12.45Q174.88-24.2 178.93-31.05L178.93-31.05Q179.48-31.6 181.68-31.6L181.68-31.6Q182.53-24 183.61-17.73 184.68-11.45 186.23-3.9L186.23-3.9Q192.18-19.8 197.01-29.15 201.83-38.5 205.98-38.5L205.98-38.5ZM224.78-17.85Q224.98-17.8 225.13-17.55 225.28-17.3 225.28-17L225.28-17Q225.28-15.95 224.31-14.98 223.33-14 221.76-13.4 220.18-12.8 218.58-12.8L218.58-12.8Q216.08-12.8 214.31-14.1 212.53-15.4 212.03-17.75L212.03-17.75Q209.78-17.5 207.91-14.9 206.03-12.3 205.28-9.25L205.28-9.25Q205.18-8.75 204.53-6.18 203.88-3.6 203.28-0.1L203.28-0.1Q203.23 0.05 203.16 0.13 203.08 0.2 202.83 0.2L202.83 0.2Q202.48 0.2 201.78-0.1 201.08-0.4 201.08-0.75L201.08-0.75Q201.08-1.45 201.33-2.6L201.33-2.6Q204.38-16.7 205.28-20.05L205.28-20.05Q205.38-20.5 205.51-20.65 205.63-20.8 205.93-20.8L205.93-20.8Q206.13-20.8 206.78-20.48 207.43-20.15 207.83-19.8L207.83-19.8 206.93-16.9 206.63-15.9Q207.78-17.7 209.28-18.8 210.78-19.9 212.48-19.9L212.48-19.9Q212.98-19.9 213.48-19.8 213.98-19.7 214.18-19.55L214.18-19.55Q214.18-17.1 215.46-15.93 216.73-14.75 219.03-14.75L219.03-14.75Q221.08-14.75 222.43-15.45 223.78-16.15 224.78-17.85L224.78-17.85ZM225.53 0.35Q223.78 0.35 222.4-0.83 221.03-2 221.03-4.3L221.03-4.3Q221.78-6.7 223.63-14.95L223.63-14.95Q224.53-19 224.73-19.8L224.73-19.8Q225.38-20.9 226.53-20.9L226.53-20.9Q227.28-20.9 227.28-20.4L227.28-20.4Q226.93-19.15 226.3-16.43 225.68-13.7 225.33-12.15L225.33-12.15Q223.98-5.95 223.48-4.2L223.48-4.2Q223.48-3.05 224.15-2.43 224.83-1.8 225.93-1.8L225.93-1.8Q228.43-1.8 230.95-3.58 233.48-5.35 235.4-7.7 237.33-10.05 238.28-11.75L238.28-11.75Q238.58-11.65 238.68-11.43 238.78-11.2 238.78-10.65L238.78-10.65Q238.78-9.9 238.28-9.1L238.28-9.1Q235.58-4.85 232.23-2.25 228.88 0.35 225.53 0.35L225.53 0.35ZM227.83-27.15Q227.13-27.15 226.73-27.63 226.33-28.1 226.33-28.85L226.33-28.85Q226.33-29.85 226.98-30.68 227.63-31.5 228.63-31.5L228.63-31.5Q229.43-31.5 229.8-31 230.18-30.5 230.18-29.8L230.18-29.8Q230.18-28.8 229.5-27.98 228.83-27.15 227.83-27.15L227.83-27.15ZM254.98-8.3Q255.23-7.95 255.23-7.45L255.23-7.45Q255.23-7.05 255.08-6.75 254.93-6.45 254.58-6L254.58-6Q253.28-4.45 250.95-2.93 248.63-1.4 246.08-0.45 243.53 0.5 241.63 0.5L241.63 0.5Q239.48 0.5 238.05-0.83 236.63-2.15 236.63-4.8L236.63-4.8Q236.63-8.15 239.03-17.4L239.03-17.4 233.73-17.2Q233.63-17.25 233.45-17.38 233.28-17.5 233.23-17.6L233.23-17.6Q233.38-17.85 233.78-18.6 234.18-19.35 234.48-19.65L234.48-19.65 239.63-19.6Q241.28-25.7 243.43-32.15L243.43-32.15Q244.33-32.85 245.73-33.68 247.13-34.5 247.43-34.5L247.43-34.5Q247.88-34.3 247.98-33.95L247.98-33.95Q247.08-33.6 246.58-33.02 246.08-32.45 245.58-31.15L245.58-31.15Q244.13-27.45 242.08-19.6L242.08-19.6 254.83-19.55 254.88-18.75Q254.88-18.35 254.73-18.2 254.58-18.05 254.03-18L254.03-18Q253.33-17.95 241.53-17.5L241.53-17.5Q239.23-8.1 239.23-4.95L239.23-4.95Q239.23-3.2 240.08-2.38 240.93-1.55 242.68-1.55L242.68-1.55Q247.78-1.55 254.98-8.3L254.98-8.3ZM273.82-11.95Q274.72-11.8 274.72-10.95L274.72-10.95Q274.72-8.95 272.15-6.28 269.57-3.6 266.07-1.68 262.57 0.25 260.22 0.25L260.22 0.25Q257.97 0.25 256.32-0.93 254.67-2.1 253.8-3.55 252.92-5 252.92-5.7L252.92-5.7Q253.72-8.55 254.67-13.6L254.67-13.6 255.22-16.4Q255.42-17.4 256.67-18.48 257.92-19.55 259.47-20.28 261.02-21 261.97-21L261.97-21Q262.72-21 263.8-20.53 264.87-20.05 265.7-19.05 266.52-18.05 266.52-16.5L266.52-16.5Q266.52-14.7 265.32-13.1 264.12-11.5 261.77-10.5 259.42-9.5 256.12-9.5L256.12-9.5 255.42-6.15Q255.42-5.7 255.95-4.65 256.47-3.6 257.65-2.75 258.82-1.9 260.62-1.9L260.62-1.9Q263.02-1.9 265.67-3.48 268.32-5.05 270.52-7.4 272.72-9.75 273.82-11.95L273.82-11.95ZM261.57-18.95Q260.97-18.95 260.02-18.45 259.07-17.95 258.3-17.2 257.52-16.45 257.37-15.8L257.37-15.8Q256.87-13.55 256.47-11.25L256.47-11.25Q260.32-11.4 262.27-12.78 264.22-14.15 264.22-15.9L264.22-15.9Q264.22-17.15 263.32-18.05 262.42-18.95 261.57-18.95L261.57-18.95Z" opacity="1" transform="matrix(1,0,0,1,0,0)" fill="#3d2f28" class="slogan-text-1" data-fill-palette-color="secondary" id="text-1"></path></svg></g></svg></g></svg></g></svg></g><g transform="matrix(1,0,0,1,103.7946925507877,0)"><svg viewBox="0 0 187.93061489842458 187.93061489842458" height="187.93061489842458" width="187.93061489842458"><g><svg></svg></g><g id="icon-0"><svg viewBox="0 0 187.93061489842458 187.93061489842458" height="187.93061489842458" width="187.93061489842458"><g><path d="M0 93.965c0-51.896 42.07-93.965 93.965-93.965 51.896 0 93.965 42.07 93.966 93.965 0 51.896-42.07 93.965-93.966 93.966-51.896 0-93.965-42.07-93.965-93.966zM93.965 181.881c48.555 0 87.916-39.361 87.916-87.916 0-48.555-39.361-87.916-87.916-87.916-48.555 0-87.916 39.361-87.916 87.916 0 48.555 39.361 87.916 87.916 87.916z" data-fill-palette-color="accent" fill="#b66f39" stroke="transparent"></path><ellipse rx="93.02565437472016" ry="93.02565437472016" cx="93.96530744921229" cy="93.96530744921229" fill="#b66f39" stroke="transparent" stroke-width="0" fill-opacity="1" data-fill-palette-color="accent"></ellipse></g><g transform="matrix(1,0,0,1,42.3665693328395,45.19165148085477)"><svg viewBox="0 0 103.19747623274559 97.54731193671503" height="97.54731193671503" width="103.19747623274559"><g><svg xmlns="http://www.w3.org/2000/svg" xmlns:xlink="http://www.w3.org/1999/xlink" version="1.1" x="0" y="0" viewBox="0.8 5.742 98.19 92.814" enable-background="new 0 0 100 100" xml:space="preserve" height="97.54731193671503" width="103.19747623274559" class="icon-dxe-0" data-fill-palette-color="quaternary" id="dxe-0"><path d="M98.283 86.525V69.064L97.414 67.879V61.638L96.625 60.137V53.578L95.755 52.393V42.755L96.15 42.833 95.282 39.437 94.648 39.279V37.068L93.781 36.751 92.516 32.564 91.41 36.987 90.699 37.146 90.778 39.752 90.146 39.99 89.83 43.15 90.306 43.228V47.178L88.804 45.678V41.964L87.697 39.91 86.829 41.806V45.519L84.696 46.546V40.146L85.092 40.068 84.462 38.489 84.319 36.438 83.196 35.328 83.152 33.29 82.196 32.689 81.064 28.303 80.04 32.83 79.167 33.431 79.209 35.358 78.341 36.591 78.298 39.12 77.981 40.543 78.693 40.699V48.442L72.293 49.311V45.598L71.897 45.756 71.424 42.121 70.712 46.23 70.081 45.125 69.765 46.784V52.57C68.955 53.483 68.314 54.628 67.916 56.032A7.8 7.8 0 0 0 65.91 55.891 9 9 0 0 0 64.711 56.039C62.578 56.147 60.284 56.716 58.443 58.032 57.396 56.846 55.715 55.977 53.063 55.905V46.481L52.427 43.814 51.791 46.481V48.895L49.504 49.023 48.805 45.973 48.297 49.468H47.598V47.434L47.09 46.926V45.338C47.09 44.702 46.582 43.241 46.582 43.241S45.946 44.765 45.946 45.464V46.926L45.375 47.117V49.531L42.832 49.213V47.053L42.325 44.765 41.689 47.117V49.405L38.766 49.023V46.862L38.322 44.765 37.623 47.053V49.023L35.146 48.578 34.764 46.481V40.192L34.193 42.035 33.874 40.065 33.049 37.08 32.096 40.129V42.225L31.587 40.129 31.46 42.353V46.29L30.889 47.371 28.983 46.926 28.603 45.083 28.221 46.862 27.714 47.371V44.513L27.523 42.479 27.079 44.195 25.998 39.622 25.235 44.385 24.854 42.098V48.26L24.155 49.277V55.985C23.323 55.498 22.334 55.206 21.171 55.206V54.274L20.663 53.173V49.28L20.239 48.009V41.318L20.747 40.895 20.407 40.047V38.945L19.646 32.508 18.883 37.421 17.696 37.337 15.156 5.742 10.16 37.929 9.482 37.76 9.058 32.509 7.703 38.692 8.041 39.032 7.871 39.626 7.618 40.64 8.127 41.233V48.009L7.45 49.957V53.599L6.433 55.887V60.968H3.044L1.604 63.594V66.983L0.842 68.084 0.8 72.021 2.96 72.995 8.042 72.064 16.174 74.859V63.763C16.174 59.781 18.546 57.283 21.256 57.283 22.247 57.283 23.277 57.545 24.156 58.127V59.757A0.5 0.5 0 0 0 24.035 59.827C23.813 60.015 22.723 61.085 22.532 61.271S22.479 61.591 22.682 61.545C22.761 61.527 23.055 61.465 23.398 61.386L23.266 61.603V61.885L22.855 61.983C22.596 62.045 22.646 62.232 22.843 62.296L23.265 62.438V62.876L22.696 62.71C22.44 62.636 22.392 62.822 22.531 62.978 22.604 63.058 22.928 63.425 23.265 63.786V64.389C22.897 63.991 22.443 63.508 22.328 63.386 22.145 63.192 22.007 63.328 22.049 63.532 22.091 63.734 22.394 65.331 22.553 65.635 22.682 65.883 22.945 65.868 23.036 65.856A0.44 0.44 0 0 0 23.082 66.123C23.124 66.203 23.19 66.259 23.264 66.3V67.399C23.134 67.456 23.007 67.506 22.925 67.513V73.528L23.264 73.443V78.885L24.408 79.266 25.677 79.075 30.126 80.727V81.49L32.157 82.125 33.492 81.744 34.063 81.935 34.826 81.681 37.515 82.697 39.018 82.759 41.686 83.585V85.237L44.228 86.19 44.29 86.163 45.486 86.625V86.636L45.5 86.63 45.514 86.636V86.625L48.092 85.614V64.221C48.092 61.615 50.497 58.235 53.778 58.047 55.413 57.953 56.636 58.254 57.555 58.759A8 8 0 0 0 56.573 59.888C56.323 59.895 56.138 59.968 56.035 60.23 55.937 60.478 55.622 61.483 55.407 62.175 55.386 62.236 55.368 62.299 55.348 62.362L55.211 62.803C55.193 62.86 55.197 62.898 55.197 62.939 55.139 63.178 55.088 63.423 55.044 63.677L55.039 63.672C54.98 63.641 54.824 63.618 54.748 63.755L54.592 64.038 54.43 63.775C54.346 63.64 54.191 63.67 54.137 63.705 54.082 63.739 53.995 63.879 54.067 63.996 54.098 64.048 54.161 64.156 54.221 64.262L53.878 64.256C53.72 64.254 53.661 64.401 53.661 64.466 53.659 64.529 53.73 64.679 53.869 64.682 53.946 64.683 54.124 64.692 54.27 64.7L54.064 65.05C53.986 65.186 54.085 65.31 54.141 65.342 54.197 65.375 54.362 65.387 54.432 65.267 54.475 65.193 54.586 65.017 54.668 64.888L54.852 65.215C54.859 65.229 54.875 65.228 54.885 65.238 54.876 65.441 54.857 65.634 54.857 65.844V66.428L54.839 66.353C54.76 66.017 54.518 66.08 54.432 66.334 54.346 66.59 53.65 68.577 53.631 69.022 53.614 69.385 53.916 69.538 54.027 69.583A0.582 0.582 0 0 0 54.464 70.52 0.57 0.57 0 0 0 54.858 70.383V71.675C54.624 71.679 54.095 71.716 54.095 71.716V83.194L54.858 82.965V89.856L57.669 90.943V90.955L57.685 90.949 57.701 90.955V90.942L60.64 89.791V65.394C60.64 62.421 62.827 58.939 66.548 58.494 66.89 58.453 67.206 58.433 67.506 58.429 67.485 58.746 67.469 59.07 67.469 59.408V59.619C67.467 59.639 67.457 59.656 67.457 59.677 67.457 59.702 67.466 59.726 67.469 59.75V60.107C67.314 60.186 67.102 60.351 67.102 60.676 67.102 60.932 67.282 61.653 67.469 62.337V65.511L67.338 65.509C67.16 65.505 67.094 65.672 67.093 65.746S67.173 65.989 67.329 65.991L67.469 65.997V69.383C67.264 70.028 67.072 70.685 67.062 70.929 67.044 71.306 67.324 71.478 67.469 71.544V71.643A0.6 0.6 0 0 0 67.375 71.943 0.64 0.64 0 0 0 67.469 72.292V74.12L67.054 74.149V87.068L67.469 86.928V92.608L69.76 93.307V94.052L72.327 95.085 73.63 94.386 78.681 96.038 78.609 97.29 81.216 98.476 82.953 97.436 86.19 98.556 88.009 97.29V94.999L93.539 91.03 97.885 91.505 98.99 91.19V88.74zM22.165 62.137C22.166 62.086 22.128 61.971 22.007 61.966L21.743 61.956C21.782 61.879 21.821 61.804 21.842 61.767 21.893 61.673 21.822 61.569 21.778 61.544 21.734 61.521 21.613 61.501 21.555 61.607L21.434 61.827 21.308 61.622C21.245 61.519 21.125 61.543 21.082 61.569 21.04 61.594 20.972 61.702 21.029 61.794 21.053 61.833 21.102 61.917 21.148 61.999L20.882 61.994C20.76 61.991 20.715 62.106 20.715 62.155 20.715 62.205 20.769 62.32 20.876 62.322 20.936 62.323 21.073 62.33 21.187 62.336L21.028 62.607C20.967 62.711 21.043 62.805 21.086 62.832 21.129 62.856 21.257 62.866 21.311 62.772 21.345 62.715 21.431 62.579 21.494 62.479 21.548 62.574 21.609 62.684 21.635 62.734 21.684 62.829 21.812 62.825 21.857 62.802 21.9 62.78 21.982 62.688 21.926 62.58L21.774 62.29 21.996 62.292C22.102 62.297 22.163 62.186 22.165 62.137M17.231 62.57A0.43 0.43 0 0 0 17.492 62.492C17.521 62.58 17.626 62.821 17.905 62.825 18.247 62.832 19.811 62.388 20.012 62.335 20.212 62.282 20.274 62.098 20.017 62.022 19.763 61.947 18.3 61.505 18.016 61.444 17.756 61.387 17.624 61.523 17.491 61.75A0.45 0.45 0 0 0 16.789 62.113 0.45 0.45 0 0 0 17.231 62.57M22.778 58.059C22.878 57.974 22.935 57.86 22.778 57.802A1.5 1.5 0 0 0 22.522 57.731C22.279 57.66 22.178 57.631 22.193 57.875 22.208 58.117 22.279 58.218 22.406 58.246 22.535 58.273 22.678 58.144 22.778 58.059M19.67 65.987A0.44 0.44 0 0 0 19.73 65.722C19.821 65.739 20.081 65.766 20.223 65.524 20.396 65.228 20.777 63.649 20.828 63.448S20.748 63.104 20.556 63.289C20.365 63.475 19.265 64.534 19.072 64.752 18.895 64.949 18.948 65.13 19.081 65.358A0.45 0.45 0 0 0 19.055 66.147 0.45 0.45 0 0 0 19.67 65.987M18.134 65.623C18.261 65.732 18.332 65.626 18.358 65.496S18.424 65.18 18.336 65.082 18.126 64.973 17.909 65.08C17.69 65.186 17.764 65.259 17.946 65.434 17.945 65.434 18.007 65.515 18.134 65.623M21.802 66.397A0.45 0.45 0 0 0 21.741 66.149C21.975 66.031 22.119 65.908 22.078 65.645 22.034 65.358 21.684 63.872 21.624 63.611 21.562 63.351 21.376 63.4 21.309 63.598 21.244 63.795 20.705 65.327 20.692 65.669 20.679 65.949 20.912 66.068 20.998 66.104A0.451 0.451 0 0 0 21.334 66.828 0.45 0.45 0 0 0 21.802 66.397M20.128 63.033C20.274 62.886 20.231 62.695 19.972 62.761 19.713 62.825 18.232 63.191 17.954 63.281 17.703 63.365 17.657 63.548 17.658 63.81A0.45 0.45 0 1 0 18.038 64.451C18.107 64.512 18.32 64.666 18.563 64.528 18.861 64.358 19.982 63.182 20.128 63.033M22.445 66.223C22.318 66.257 22.252 66.438 22.202 66.559 22.154 66.682 22.155 66.809 22.32 66.788 22.487 66.766 22.582 66.732 22.582 66.732 22.831 66.683 22.932 66.662 22.807 66.453 22.681 66.244 22.572 66.188 22.445 66.223M16.915 60.983S16.881 61.077 16.856 61.241C16.832 61.408 16.959 61.411 17.081 61.365 17.205 61.318 17.385 61.254 17.423 61.127 17.458 61 17.404 60.891 17.197 60.763 16.992 60.635 16.969 60.736 16.915 60.983M18.492 59.343C18.587 59.25 18.595 59.127 18.48 58.914S18.295 58.776 18.126 58.965C18.126 58.965 18.048 59.029 17.945 59.161 17.841 59.292 17.949 59.359 18.08 59.379 18.209 59.399 18.398 59.435 18.492 59.343M20.35 66.163C20.333 66.15 20.325 66.125 20.305 66.118 20.277 66.109 20.25 66.124 20.222 66.125 20.214 66.127 20.206 66.125 20.198 66.127A0.3 0.3 0 0 0 20.071 66.187 2 2 0 0 0 19.921 66.295C19.818 66.375 19.756 66.486 19.911 66.552L19.936 66.55A1 1 0 0 0 20.144 66.62S20.237 66.657 20.401 66.688C20.565 66.718 20.573 66.591 20.531 66.465 20.51 66.405 20.485 66.332 20.451 66.267A0.22 0.22 0 0 0 20.35 66.163M16.961 62.954C16.718 62.934 16.745 63.035 16.812 63.279 16.812 63.279 16.824 63.378 16.879 63.537 16.933 63.695 17.048 63.64 17.136 63.541 17.222 63.443 17.355 63.303 17.328 63.174S17.203 62.973 16.961 62.954M22.173 61.043C22.33 60.906 23.57 59.855 23.755 59.567 23.907 59.331 23.765 59.112 23.708 59.039A0.43 0.43 0 0 0 23.918 58.865 0.45 0.45 0 1 0 23.092 58.624C22.829 58.608 22.643 58.643 22.545 58.888 22.438 59.159 21.988 60.618 21.909 60.872 21.831 61.127 22.017 61.181 22.173 61.043M17.353 59.88A0.447 0.447 0 0 0 17.801 60.54C17.786 60.631 17.768 60.892 18.014 61.025 18.314 61.189 19.907 61.515 20.11 61.561 20.313 61.605 20.451 61.47 20.259 61.286 20.067 61.098 18.972 60.035 18.748 59.848 18.545 59.679 18.365 59.739 18.142 59.879A0.448 0.448 0 0 0 17.353 59.88M19.672 58.372A0.45 0.45 0 1 0 19.113 59.022C19.055 59.093 18.908 59.31 19.055 59.548 19.236 59.84 20.453 60.917 20.606 61.057S20.947 61.148 20.874 60.892C20.799 60.636 20.381 59.166 20.279 58.894 20.188 58.647 20.003 58.609 19.738 58.62A0.47 0.47 0 0 0 19.672 58.372M20.719 58.715C20.719 59.057 21.19 60.613 21.247 60.813 21.305 61.014 21.49 61.07 21.561 60.813 21.632 60.557 22.045 59.087 22.103 58.802 22.155 58.54 22.018 58.411 21.789 58.282A0.45 0.45 0 1 0 21.046 58.297C20.957 58.327 20.719 58.436 20.719 58.715M20.562 57.874C20.577 57.631 20.476 57.659 20.233 57.73 20.233 57.73 20.133 57.746 19.977 57.801 19.82 57.859 19.877 57.973 19.977 58.058 20.076 58.143 20.22 58.273 20.349 58.245 20.476 58.217 20.549 58.116 20.562 57.874M52.312 59.562A0.583 0.583 0 1 0 51.588 60.403C51.514 60.497 51.325 60.777 51.517 61.086 51.747 61.465 53.326 62.859 53.524 63.04 53.724 63.223 53.967 63.16 53.871 62.828 53.776 62.497 53.231 60.593 53.1 60.239 52.981 59.918 52.741 59.867 52.4 59.881A0.57 0.57 0 0 0 52.312 59.562M50.786 60.818C50.907 60.699 50.918 60.54 50.768 60.262 50.62 59.986 50.528 60.086 50.309 60.329 50.309 60.329 50.209 60.412 50.076 60.583 49.94 60.751 50.081 60.839 50.249 60.865 50.419 60.893 50.663 60.938 50.786 60.818M53.468 58.914C53.487 58.6 53.357 58.638 53.042 58.728 53.042 58.728 52.914 58.747 52.71 58.822 52.506 58.896 52.58 59.044 52.71 59.154 52.838 59.264 53.024 59.433 53.19 59.395 53.356 59.358 53.449 59.229 53.468 58.914M49.028 66.261C49.141 66.133 49.31 65.951 49.275 65.783 49.243 65.617 49.113 65.522 48.8 65.497S48.52 65.603 48.608 65.92C48.608 65.92 48.625 66.05 48.696 66.255 48.764 66.459 48.913 66.389 49.028 66.261M49.306 61.515A0.582 0.582 0 0 0 49.888 62.37C49.867 62.488 49.844 62.827 50.163 62.999 50.555 63.211 52.616 63.636 52.879 63.694S53.322 63.575 53.074 63.335C52.825 63.096 51.405 61.717 51.115 61.475 50.853 61.255 50.62 61.332 50.33 61.515A0.58 0.58 0 0 0 49.306 61.515M49.151 65.002A0.57 0.57 0 0 0 49.49 64.9C49.526 65.014 49.661 65.325 50.023 65.333 50.468 65.341 52.495 64.768 52.754 64.697 53.013 64.628 53.092 64.388 52.761 64.291 52.431 64.192 50.535 63.621 50.166 63.541 49.831 63.467 49.66 63.642 49.487 63.938A0.57 0.57 0 0 0 49.173 63.836 0.584 0.584 0 0 0 49.151 65.002M53.353 69.857C53.323 69.747 53.268 69.677 53.193 69.639 53.173 69.625 53.156 69.608 53.133 69.6 53.006 69.56 52.889 69.593 52.761 69.734A3 3 0 0 0 52.637 69.829C52.504 69.933 52.422 70.078 52.623 70.161L52.654 70.158C52.714 70.192 52.799 70.22 52.925 70.25 52.925 70.25 53.044 70.3 53.259 70.339 53.472 70.377 53.483 70.213 53.426 70.051A3 3 0 0 0 53.353 69.857M53.672 60.005C53.672 60.449 54.281 62.466 54.356 62.724 54.429 62.983 54.67 63.057 54.763 62.724 54.855 62.392 55.391 60.488 55.465 60.118 55.533 59.781 55.354 59.612 55.057 59.445A0.584 0.584 0 0 0 54.568 58.545 0.583 0.583 0 0 0 54.093 59.464C53.979 59.503 53.672 59.642 53.672 60.005M56.339 59.154C56.468 59.044 56.542 58.896 56.339 58.822S56.006 58.728 56.006 58.728C55.692 58.637 55.562 58.599 55.581 58.914 55.6 59.228 55.691 59.358 55.857 59.395 56.024 59.434 56.209 59.265 56.339 59.154M52.311 69.43A0.56 0.56 0 0 0 52.389 69.086C52.506 69.109 52.843 69.144 53.027 68.831 53.252 68.447 53.745 66.4 53.813 66.14 53.879 65.877 53.709 65.695 53.461 65.934 53.212 66.175 51.787 67.547 51.536 67.83 51.307 68.086 51.377 68.32 51.549 68.615A0.581 0.581 0 1 0 52.311 69.43M48.741 62.945S48.696 63.067 48.664 63.28C48.633 63.495 48.798 63.501 48.956 63.439 49.117 63.377 49.351 63.295 49.399 63.13 49.444 62.967 49.375 62.823 49.106 62.657 48.839 62.492 48.811 62.624 48.741 62.945M52.904 65.602C53.092 65.41 53.039 65.164 52.705 65.248 52.368 65.331 50.446 65.804 50.088 65.922 49.762 66.03 49.702 66.268 49.705 66.61A0.585 0.585 0 0 0 49.162 67.478 0.584 0.584 0 0 0 50.195 67.437C50.286 67.517 50.561 67.716 50.877 67.538 51.262 67.319 52.714 65.794 52.904 65.602M50.027 68.253C49.744 68.392 49.839 68.486 50.076 68.714 50.076 68.714 50.155 68.818 50.321 68.958 50.485 69.099 50.577 68.961 50.61 68.795 50.642 68.627 50.695 68.383 50.582 68.257 50.469 68.132 50.31 68.114 50.027 68.253M61.496 64.015S61.445 64.154 61.408 64.398C61.372 64.642 61.561 64.648 61.741 64.578 61.924 64.51 62.19 64.414 62.242 64.227 62.296 64.041 62.217 63.878 61.913 63.69 61.607 63.501 61.574 63.649 61.496 64.015M61.963 66.354A0.65 0.65 0 0 0 62.348 66.241C62.389 66.369 62.542 66.723 62.956 66.731 63.46 66.74 65.766 66.086 66.061 66.009 66.357 65.929 66.445 65.657 66.069 65.544 65.693 65.433 63.537 64.783 63.119 64.692 62.737 64.608 62.542 64.808 62.347 65.143A0.66 0.66 0 0 0 61.314 65.679 0.657 0.657 0 0 0 61.963 66.354M66.872 59.431C66.892 59.074 66.746 59.117 66.389 59.221 66.389 59.221 66.241 59.242 66.009 59.326 65.78 59.41 65.863 59.577 66.009 59.704 66.158 59.831 66.367 60.02 66.558 59.977 66.746 59.936 66.851 59.788 66.872 59.431M63.82 61.598C63.959 61.462 63.972 61.281 63.802 60.966 63.633 60.65 63.529 60.763 63.28 61.039 63.28 61.039 63.166 61.136 63.012 61.329 62.861 61.522 63.021 61.62 63.211 61.651 63.404 61.682 63.682 61.731 63.82 61.598M62.959 70.053C62.638 70.211 62.747 70.319 63.016 70.576 63.016 70.576 63.105 70.694 63.293 70.854 63.48 71.013 63.585 70.857 63.622 70.668 63.658 70.477 63.72 70.201 63.591 70.056 63.46 69.914 63.28 69.895 62.959 70.053M66.232 67.037C66.445 66.819 66.383 66.539 66.003 66.635 65.621 66.731 63.436 67.268 63.027 67.403 62.656 67.525 62.589 67.795 62.59 68.184A0.66 0.66 0 0 0 61.974 69.171C62.155 69.489 62.559 69.601 62.877 69.422A0.66 0.66 0 0 0 63.15 69.125C63.252 69.216 63.563 69.443 63.921 69.238 64.363 68.991 66.015 67.256 66.232 67.037M66.735 71.863C66.699 71.743 66.638 71.668 66.553 71.626 66.532 71.612 66.514 71.594 66.491 71.586 66.348 71.54 66.217 71.577 66.071 71.735A4 4 0 0 0 65.927 71.843C65.776 71.964 65.682 72.127 65.912 72.222L65.946 72.219C66.014 72.257 66.112 72.287 66.254 72.323 66.254 72.323 66.391 72.381 66.633 72.425 66.876 72.469 66.888 72.281 66.825 72.098A2 2 0 0 0 66.735 71.863M65.557 71.392A0.66 0.66 0 0 0 65.646 71C65.78 71.026 66.163 71.065 66.372 70.709 66.628 70.273 67.187 67.946 67.264 67.648 67.34 67.352 67.147 67.141 66.865 67.414S64.962 69.249 64.677 69.568C64.415 69.861 64.494 70.128 64.69 70.464A0.662 0.662 0 1 0 65.557 71.392M65.56 60.167A0.663 0.663 0 0 0 64.431 60.861 0.65 0.65 0 0 0 64.735 61.123C64.65 61.228 64.434 61.549 64.652 61.9 64.918 62.329 66.71 63.917 66.938 64.124 67.164 64.331 67.439 64.258 67.331 63.882 67.223 63.503 66.605 61.34 66.454 60.937 66.319 60.57 66.046 60.514 65.658 60.531A0.67 0.67 0 0 0 65.56 60.167M62.139 62.389A0.661 0.661 0 0 0 62.802 63.361C62.779 63.495 62.752 63.882 63.114 64.078 63.559 64.318 65.906 64.801 66.205 64.867S66.707 64.733 66.425 64.46 64.529 62.618 64.198 62.344C63.898 62.094 63.634 62.181 63.304 62.388A0.663 0.663 0 0 0 62.139 62.389M62.104 67.245C62.067 67.054 61.92 66.947 61.563 66.918 61.207 66.892 61.247 67.04 61.345 67.398 61.345 67.398 61.363 67.546 61.443 67.779S61.693 67.93 61.822 67.786C61.949 67.641 62.143 67.435 62.104 67.245M48.784 85.235L50.393 84.558V70.541S48.996 69.015 48.784 68.549zM51.62 84.239L53.272 83.605V71.577S52.467 71.408 51.62 70.899zM61.743 89.365L63.351 88.602V72.823S61.955 71.107 61.743 70.583zM64.58 88.244L66.232 87.53V73.99S65.426 73.8 64.58 73.227zM17.148 65.606V74.943L18.535 74.573V66.907C17.994 66.517 17.669 66.332 17.148 65.606M19.383 74.399L20.807 74.052V67.473S20.048 67.406 19.383 67.103zM21.52 67.549V73.827L22.377 73.61 22.335 67.525C22.12 67.525 21.52 67.549 21.52 67.549" fill="#3d2f28" data-fill-palette-color="quaternary"></path></svg></g></svg></g></svg></g></svg></g><g></g></svg></g><defs></defs></svg><rect width="275.0173175590578" height="247.2" fill="none" stroke="none" visibility="hidden"></rect></g></svg></g></svg>